<svg width="126" height="21" viewBox="0 0 126 21" fill="none" xmlns="http://www.w3.org/2000/svg">
<path d="M7.18223 20.582C11.4324 20.582 13.5575 18.2052 13.5575 15.2487C13.5575 12.2052 11.7821 10.698 8.79621 9.97334L5.67584 9.19073C3.03967 8.52406 2.04438 7.88638 2.04438 5.68348C2.04438 3.56754 3.52386 2.49507 6.50973 2.49507C10.0605 2.49507 11.3517 4.20522 11.3517 6.87189V7.19073H13.2616V6.81391C13.2616 3.6545 11.2172 0.582031 6.53663 0.582031C2.25958 0.582031 0.107599 3.01681 0.107599 5.82841C0.107599 8.95884 2.04438 10.3501 4.86885 10.9878L7.98922 11.7415C10.7061 12.3791 11.6207 13.1907 11.6207 15.3646C11.6207 17.5965 10.2219 18.669 7.23603 18.669C3.22797 18.669 1.90988 16.9878 1.90988 14.2922V13.9733H0V14.4081C0 17.7415 2.17888 20.582 7.18223 20.582Z" fill="white"/>
<path d="M23.458 20.582C28.0041 20.582 30.9093 17.7125 30.9093 12.64V0.871886H28.9725V12.64C28.9725 16.7849 27.3585 18.582 23.458 18.582C19.5038 18.582 17.9167 16.7849 17.9167 12.64V0.871886H15.9799V12.64C15.9799 17.7125 18.8582 20.582 23.458 20.582Z" fill="white"/>
<path d="M34.3335 20.2922L36.4855 14.611H45.3893L47.5682 20.2922H49.6395L42.3496 0.871886H39.6059L32.316 20.2922H34.3335ZM39.8211 5.79942L40.8701 2.8429H41.0046L42.0268 5.79942L44.663 12.727H37.1849L39.8211 5.79942Z" fill="white"/>
<path d="M70.0408 20.2922V15.3936H61.0025V0.871886H55.9453V20.2922H70.0408Z" fill="#FFB800"/>
<path d="M78.845 20.582C84.5477 20.582 87.8833 16.64 87.8833 10.582C87.8833 4.52406 84.5477 0.582031 78.845 0.582031C73.1153 0.582031 69.7798 4.52406 69.7798 10.582C69.7798 16.64 73.1153 20.582 78.845 20.582ZM78.845 15.2777C76.0474 15.2777 75.2135 14.3212 75.2135 10.582C75.2135 6.8429 76.0474 5.88638 78.845 5.88638C81.6157 5.88638 82.4496 6.8429 82.4496 10.582C82.4496 14.3212 81.6157 15.2777 78.845 15.2777Z" fill="#FFB800"/>
<path d="M96.6766 20.582C99.9852 20.582 101.115 18.9878 101.653 17.5675H101.895V20.2922H106.629V9.82841H97.4836V13.9154H101.734C101.653 15.1038 100.981 15.5675 98.3712 15.5675C95.3585 15.5675 94.3901 14.9009 94.3901 10.582C94.3901 6.66899 95.2509 5.88638 97.9139 5.88638C100.496 5.88638 101.196 6.49507 101.196 8.26319V8.35015H106.603V8.14725C106.603 3.59652 103.886 0.582031 98.2636 0.582031C92.2381 0.582031 88.9563 4.52406 88.9563 10.582C88.9563 16.8429 91.5925 20.582 96.6766 20.582Z" fill="#FFB800"/>
<path d="M116.962 20.582C122.664 20.582 126 16.64 126 10.582C126 4.52406 122.664 0.582031 116.962 0.582031C111.232 0.582031 107.896 4.52406 107.896 10.582C107.896 16.64 111.232 20.582 116.962 20.582ZM116.962 15.2777C114.164 15.2777 113.33 14.3212 113.33 10.582C113.33 6.8429 114.164 5.88638 116.962 5.88638C119.732 5.88638 120.566 6.8429 120.566 10.582C120.566 14.3212 119.732 15.2777 116.962 15.2777Z" fill="#FFB800"/>
</svg>
