<svg width="65" height="65" viewBox="0 0 65 65" fill="none" xmlns="http://www.w3.org/2000/svg">
<g id="Icon / UI / Shapes / star 1 / bold">
<g id="Icon">
<mask id="path-1-inside-1_1_537" fill="white">
<path d="M30.8764 12.6949C31.3981 11.6381 31.6589 11.1097 32.013 10.9409C32.321 10.794 32.679 10.794 32.987 10.9409C33.3411 11.1097 33.602 11.6381 34.1236 12.6949L39.0727 22.7212C39.2267 23.0332 39.3037 23.1892 39.4162 23.3103C39.5159 23.4176 39.6354 23.5045 39.7681 23.5662C39.918 23.6359 40.0902 23.6611 40.4344 23.7114L51.5048 25.3295C52.6706 25.4999 53.2534 25.5851 53.5232 25.8698C53.7579 26.1175 53.8683 26.4579 53.8236 26.7963C53.7722 27.1851 53.3503 27.5961 52.5063 28.4181L44.4987 36.2175C44.2491 36.4607 44.1243 36.5822 44.0437 36.7269C43.9724 36.8549 43.9267 36.9956 43.909 37.1412C43.8891 37.3055 43.9185 37.4772 43.9775 37.8207L45.8669 48.837C46.0662 49.9989 46.1658 50.5798 45.9785 50.9246C45.8156 51.2245 45.526 51.4349 45.1904 51.4972C44.8046 51.5687 44.2829 51.2943 43.2395 50.7456L33.3428 45.541C33.0344 45.3788 32.8802 45.2977 32.7178 45.2659C32.574 45.2377 32.426 45.2377 32.2822 45.2659C32.1198 45.2977 31.9656 45.3788 31.6572 45.541L21.7605 50.7456C20.7171 51.2943 20.1954 51.5687 19.8096 51.4972C19.474 51.4349 19.1844 51.2245 19.0215 50.9246C18.8342 50.5798 18.9338 49.9989 19.1331 48.837L21.0226 37.8207C21.0815 37.4772 21.1109 37.3055 21.091 37.1412C21.0733 36.9956 21.0276 36.8549 20.9563 36.7269C20.8757 36.5822 20.7509 36.4607 20.5013 36.2175L12.4937 28.4181C11.6498 27.5961 11.2278 27.1851 11.1764 26.7963C11.1317 26.4579 11.2421 26.1175 11.4768 25.8698C11.7466 25.5851 12.3294 25.4999 13.4952 25.3295L24.5656 23.7114C24.9098 23.6611 25.082 23.6359 25.2319 23.5662C25.3646 23.5045 25.4841 23.4176 25.5838 23.3103C25.6963 23.1892 25.7733 23.0332 25.9273 22.7212L30.8764 12.6949Z"/>
</mask>
<path d="M24.5656 23.7114L26.735 38.5537V38.5537L24.5656 23.7114ZM25.2319 23.5662L18.907 9.9649V9.9649L25.2319 23.5662ZM25.9273 22.7212L12.4767 16.0819L12.4767 16.0819L25.9273 22.7212ZM25.5838 23.3103L36.5728 33.5202L25.5838 23.3103ZM12.4937 28.4181L2.02774 39.1635H2.02774L12.4937 28.4181ZM11.1764 26.7963L26.0473 24.8324L11.1764 26.7963ZM13.4952 25.3295L11.3258 10.4872L11.3258 10.4872L13.4952 25.3295ZM11.4768 25.8698L0.587655 15.5535V15.5535L11.4768 25.8698ZM21.0226 37.8207L6.23842 35.285L21.0226 37.8207ZM21.091 37.1412L35.9819 35.3355L21.091 37.1412ZM20.5013 36.2175L30.9673 25.4722V25.4722L20.5013 36.2175ZM20.9563 36.7269L34.0618 29.4299L20.9563 36.7269ZM21.7605 50.7456L28.7422 64.0217H28.7422L21.7605 50.7456ZM19.8096 51.4972L17.0756 66.2459L19.8096 51.4972ZM19.1331 48.837L33.9173 51.3726L19.1331 48.837ZM19.0215 50.9246L5.84037 58.0841L19.0215 50.9246ZM33.3428 45.541L26.361 58.8171L33.3428 45.541ZM32.7178 45.2659L35.6045 30.5463L32.7178 45.2659ZM31.6572 45.541L24.6755 32.2649L24.6755 32.2649L31.6572 45.541ZM32.2822 45.2659L35.169 59.9855L32.2822 45.2659ZM45.8669 48.837L60.651 46.3013V46.3013L45.8669 48.837ZM45.9785 50.9246L32.7974 43.7651L45.9785 50.9246ZM43.2395 50.7456L50.2213 37.4695L43.2395 50.7456ZM45.1904 51.4972L42.4563 36.7484L45.1904 51.4972ZM44.4987 36.2175L54.9647 46.9629L44.4987 36.2175ZM44.0437 36.7269L57.1492 44.0239L44.0437 36.7269ZM43.9775 37.8207L29.1933 40.3563L43.9775 37.8207ZM43.909 37.1412L29.0181 35.3355L43.909 37.1412ZM51.5048 25.3295L53.6742 10.4872V10.4872L51.5048 25.3295ZM53.5232 25.8698L64.4123 15.5535V15.5535L53.5232 25.8698ZM52.5063 28.4181L42.0403 17.6728H42.0403L52.5063 28.4181ZM53.8236 26.7963L38.9527 24.8324L53.8236 26.7963ZM39.0727 22.7212L52.5233 16.0819V16.0819L39.0727 22.7212ZM39.4162 23.3103L28.4273 33.5202L39.4162 23.3103ZM40.4344 23.7114L38.265 38.5537L38.265 38.5537L40.4344 23.7114ZM39.7681 23.5662L46.0931 9.9649L39.7681 23.5662ZM34.1236 12.6949L20.673 19.3343L20.673 19.3343L34.1236 12.6949ZM32.987 10.9409L39.4427 -2.59889L32.987 10.9409ZM30.8764 12.6949L44.327 19.3343V19.3343L30.8764 12.6949ZM32.013 10.9409L25.5573 -2.59889L32.013 10.9409ZM20.673 19.3343L25.6221 29.3606L52.5233 16.0819L47.5742 6.05555L20.673 19.3343ZM38.265 38.5537L49.3354 40.1718L53.6742 10.4872L42.6039 8.8691L38.265 38.5537ZM42.0403 17.6728L34.0327 25.4722L54.9647 46.9629L62.9723 39.1635L42.0403 17.6728ZM29.1933 40.3563L31.0827 51.3726L60.651 46.3013L58.7616 35.285L29.1933 40.3563ZM50.2213 37.4695L40.3245 32.2649L26.361 58.8171L36.2578 64.0217L50.2213 37.4695ZM24.6755 32.2649L14.7787 37.4695L28.7422 64.0217L38.639 58.8171L24.6755 32.2649ZM33.9173 51.3726L35.8067 40.3563L6.23842 35.285L4.349 46.3013L33.9173 51.3726ZM30.9673 25.4722L22.9597 17.6728L2.02774 39.1635L10.0353 46.9629L30.9673 25.4722ZM15.6646 40.1718L26.735 38.5537L22.3961 8.8691L11.3258 10.4872L15.6646 40.1718ZM39.3779 29.3606L44.327 19.3343L17.4258 6.05555L12.4767 16.0819L39.3779 29.3606ZM26.735 38.5537C26.7491 38.5516 27.3535 38.4686 27.9582 38.3457C28.7222 38.1905 30.0403 37.8727 31.5568 37.1675L18.907 9.9649C20.2736 9.3294 21.4306 9.05904 21.985 8.9464C22.2427 8.89403 22.4292 8.86479 22.4626 8.85955C22.493 8.85476 22.5054 8.85313 22.3961 8.8691L26.735 38.5537ZM12.4767 16.0819C12.4278 16.1809 12.4332 16.1696 12.4471 16.1421C12.4624 16.112 12.5477 15.9436 12.677 15.7146C12.955 15.2219 13.5689 14.2046 14.5948 13.1004L36.5728 33.5202C37.7111 32.295 38.4198 31.1391 38.803 30.4601C39.1063 29.9227 39.3716 29.3734 39.3779 29.3606L12.4767 16.0819ZM31.5568 37.1675C33.449 36.2876 35.1524 35.049 36.5728 33.5202L14.5948 13.1004C15.8158 11.7862 17.2803 10.7213 18.907 9.9649L31.5568 37.1675ZM22.9597 17.6728C22.7219 17.4411 22.636 17.3569 22.5841 17.3046C22.5246 17.2446 22.6903 17.4066 22.9355 17.6932C23.1619 17.9578 23.747 18.662 24.3424 19.715C24.9729 20.8301 25.7483 22.5686 26.0473 24.8324L-3.69447 28.7601C-3.0711 33.4805 -0.469364 36.4839 0.140153 37.1963C0.908126 38.0939 1.81999 38.9612 2.02774 39.1635L22.9597 17.6728ZM11.3258 10.4872C11.0388 10.5291 9.79156 10.6963 8.64299 10.9725C7.73141 11.1917 3.86231 12.097 0.587655 15.5535L22.366 36.1861C20.7955 37.8438 19.1475 38.7965 17.9826 39.3294C16.8826 39.8327 15.9955 40.0596 15.657 40.141C15.2902 40.2292 15.061 40.2631 15.1444 40.2495C15.2172 40.2376 15.3361 40.2198 15.6646 40.1718L11.3258 10.4872ZM26.0473 24.8324C26.5948 28.9785 25.2422 33.1502 22.366 36.1861L0.587655 15.5535C-2.75795 19.0849 -4.33135 23.9374 -3.69447 28.7601L26.0473 24.8324ZM35.8067 40.3563C35.8091 40.3422 35.9176 39.7411 35.9881 39.1273C36.0773 38.3518 36.1835 36.9982 35.9819 35.3355L6.20006 38.9468C6.01837 37.4485 6.11983 36.2629 6.18452 35.7003C6.2146 35.4387 6.2446 35.2521 6.24994 35.2188C6.25482 35.1883 6.25712 35.176 6.23842 35.285L35.8067 40.3563ZM10.0353 46.9629C10.1145 47.0401 10.1054 47.0315 10.0836 47.0097C10.0597 46.9859 9.92569 46.8527 9.74752 46.6588C9.36432 46.2418 8.58502 45.3426 7.85079 44.0239L34.0618 29.4299C33.247 27.9666 32.365 26.9342 31.8369 26.3595C31.4188 25.9046 30.9776 25.4822 30.9673 25.4722L10.0353 46.9629ZM35.9819 35.3355C35.7304 33.2612 35.0783 31.2555 34.0618 29.4299L7.85079 44.0239C6.9769 42.4544 6.41629 40.7301 6.20006 38.9468L35.9819 35.3355ZM14.7787 37.4695C14.4847 37.6241 14.3779 37.6798 14.3119 37.7131C14.2364 37.7512 14.4415 37.6438 14.7898 37.4992C15.1112 37.3659 15.962 37.0272 17.1477 36.7866C18.4033 36.5318 20.2972 36.332 22.5437 36.7484L17.0756 66.2459C21.7592 67.1141 25.4218 65.5677 26.2871 65.2087C27.3783 64.7559 28.4852 64.1568 28.7422 64.0217L14.7787 37.4695ZM4.349 46.3013C4.29992 46.5875 4.07241 47.8254 3.97915 49.0032C3.9052 49.9371 3.56676 53.8983 5.84037 58.0841L32.2026 43.7651C33.2931 45.7728 33.6885 47.6357 33.8344 48.9085C33.9721 50.1105 33.913 51.0243 33.8855 51.3713C33.8558 51.7472 33.817 51.9755 33.8299 51.8918C33.8412 51.8188 33.8611 51.7001 33.9173 51.3726L4.349 46.3013ZM22.5437 36.7484C26.6568 37.5109 30.2059 40.0892 32.2026 43.7651L5.84037 58.0841C8.16284 62.3599 12.2912 65.359 17.0756 66.2459L22.5437 36.7484ZM40.3245 32.2649C40.3119 32.2582 39.7738 31.9693 39.2119 31.7124C38.5022 31.388 37.2479 30.8686 35.6045 30.5463L29.831 59.9855C28.3501 59.6951 27.2542 59.2321 26.7392 58.9967C26.4997 58.8872 26.3316 58.801 26.3015 58.7856C26.2741 58.7716 26.2631 58.7656 26.361 58.8171L40.3245 32.2649ZM38.639 58.8171C38.7369 58.7656 38.7259 58.7716 38.6985 58.7856C38.6684 58.801 38.5003 58.8872 38.2608 58.9967C37.7458 59.2321 36.6498 59.6951 35.169 59.9855L29.3955 30.5463C27.7522 30.8686 26.4979 31.388 25.7881 31.7124C25.2262 31.9693 24.6881 32.2582 24.6755 32.2649L38.639 58.8171ZM35.6045 30.5463C33.5544 30.1442 31.4456 30.1442 29.3955 30.5463L35.169 59.9855C33.4064 60.3311 31.5936 60.3311 29.831 59.9855L35.6045 30.5463ZM31.0827 51.3726C31.1389 51.7001 31.1588 51.8188 31.1701 51.8918C31.183 51.9755 31.1442 51.7472 31.1145 51.3713C31.087 51.0243 31.0279 50.1105 31.1657 48.9085C31.3115 47.6357 31.7069 45.7728 32.7974 43.7651L59.1596 58.0841C61.4332 53.8983 61.0948 49.9371 61.0209 49.0032C60.9276 47.8254 60.7001 46.5875 60.651 46.3013L31.0827 51.3726ZM36.2578 64.0217C36.5148 64.1568 37.6217 64.7559 38.7129 65.2087C39.5782 65.5677 43.2408 67.1141 47.9244 66.2459L42.4563 36.7484C44.7028 36.332 46.5967 36.5318 47.8523 36.7866C49.038 37.0272 49.8888 37.3659 50.2102 37.4992C50.5585 37.6438 50.7636 37.7512 50.6881 37.7131C50.6221 37.6798 50.5153 37.6241 50.2213 37.4695L36.2578 64.0217ZM32.7974 43.7651C34.7941 40.0892 38.3432 37.5109 42.4563 36.7484L47.9244 66.2459C52.7088 65.359 56.8372 62.3599 59.1596 58.0841L32.7974 43.7651ZM34.0327 25.4722C34.0225 25.4821 33.5812 25.9046 33.1631 26.3595C32.635 26.9342 31.753 27.9665 30.9382 29.4299L57.1492 44.0239C56.415 45.3426 55.6356 46.2418 55.2525 46.6588C55.0743 46.8527 54.9403 46.9859 54.9164 47.0097C54.8945 47.0315 54.8855 47.0401 54.9647 46.9629L34.0327 25.4722ZM58.7616 35.285C58.7429 35.176 58.7452 35.1884 58.7501 35.2188C58.7554 35.2521 58.7854 35.4387 58.8155 35.7003C58.8802 36.2629 58.9816 37.4485 58.7999 38.9468L29.0181 35.3355C28.8165 36.9982 28.9227 38.3518 29.0119 39.1272C29.0824 39.7411 29.1909 40.3422 29.1933 40.3563L58.7616 35.285ZM30.9382 29.4299C29.9217 31.2555 29.2696 33.2612 29.0181 35.3355L58.7999 38.9468C58.5837 40.7301 58.0231 42.4544 57.1492 44.0239L30.9382 29.4299ZM49.3354 40.1718C49.6639 40.2198 49.7828 40.2376 49.8556 40.2495C49.939 40.2631 49.7098 40.2292 49.343 40.141C49.0044 40.0596 48.1174 39.8327 47.0174 39.3294C45.8525 38.7965 44.2045 37.8438 42.634 36.1861L64.4123 15.5535C61.1377 12.097 57.2686 11.1917 56.357 10.9725C55.2085 10.6963 53.9612 10.5291 53.6742 10.4872L49.3354 40.1718ZM62.9723 39.1635C63.18 38.9612 64.0919 38.0939 64.8599 37.1963C65.4694 36.4839 68.0711 33.4805 68.6945 28.7601L38.9527 24.8324C39.2517 22.5686 40.0271 20.8301 40.6576 19.7151C41.253 18.662 41.8381 17.9578 42.0645 17.6932C42.3097 17.4066 42.4754 17.2446 42.4159 17.3046C42.364 17.3569 42.2781 17.4411 42.0403 17.6728L62.9723 39.1635ZM42.634 36.1861C39.7578 33.1502 38.4052 28.9785 38.9527 24.8324L68.6945 28.7601C69.3314 23.9374 67.7579 19.0849 64.4123 15.5535L42.634 36.1861ZM25.6221 29.3606C25.6284 29.3733 25.8937 29.9227 26.197 30.4601C26.5802 31.139 27.2888 32.295 28.4273 33.5202L50.4052 13.1004C51.4311 14.2046 52.045 15.222 52.323 15.7146C52.4523 15.9437 52.5376 16.112 52.5529 16.1421C52.5668 16.1696 52.5722 16.1809 52.5233 16.0819L25.6221 29.3606ZM42.6039 8.8691C42.4946 8.85313 42.507 8.85476 42.5374 8.85955C42.5708 8.86479 42.7572 8.89403 43.015 8.9464C43.5694 9.05904 44.7264 9.32939 46.0931 9.9649L33.4432 37.1675C34.9597 37.8727 36.2778 38.1905 37.0418 38.3457C37.6465 38.4686 38.2509 38.5516 38.265 38.5537L42.6039 8.8691ZM28.4273 33.5202C29.8476 35.049 31.551 36.2876 33.4432 37.1675L46.0931 9.9649C47.7197 10.7213 49.1842 11.7862 50.4052 13.1004L28.4273 33.5202ZM47.5742 6.05555C47.4458 5.79534 46.9022 4.66023 46.2853 3.65269C45.796 2.85344 43.7416 -0.549203 39.4427 -2.59889L26.5314 24.4806C24.4695 23.4975 23.0549 22.2232 22.1887 21.2793C21.3708 20.3879 20.8814 19.6139 20.6996 19.3171C20.5027 18.9954 20.3998 18.7879 20.4386 18.8631C20.4723 18.9287 20.526 19.0364 20.673 19.3343L47.5742 6.05555ZM44.327 19.3343C44.474 19.0364 44.5277 18.9287 44.5614 18.8631C44.6002 18.7879 44.4973 18.9954 44.3004 19.3171C44.1186 19.6139 43.6293 20.3879 42.8113 21.2793C41.9451 22.2232 40.5305 23.4975 38.4686 24.4806L25.5573 -2.59889C21.2584 -0.549202 19.204 2.85345 18.7147 3.65269C18.0978 4.66023 17.5542 5.79534 17.4258 6.05555L44.327 19.3343ZM39.4427 -2.59889C35.051 -4.69279 29.949 -4.69279 25.5573 -2.59889L38.4686 24.4806C34.6931 26.2807 30.3069 26.2807 26.5314 24.4806L39.4427 -2.59889Z" fill="#ACB1BA" mask="url(#path-1-inside-1_1_537)"/>
</g>
</g>
</svg>
